PathFileType	4	(X/Y/Z)	/home/mitkof6/dev/sinergia_osimrl/data/02761/02761_PRE/experimental_data/static.trc
DataRate	CameraRate	NumFrames	NumMarkers	Units	OrigDataRate	OrigDataStartFrame	OrigNumFrames
100.000000	100.000000	4	45	mm	100.000000	94	189
Frame#	Time	C7			CLAV			LANK			LASI			LBHD			LELB			LFHD			LFIN			LHEE			LKNE			LKNI			LMED			LMET			LMIF			LPSI			LSHO			LTHI			LTIB			LTOE			LTTU			LWRA			LWRB			RANK			RASI			RBAK			RBHD			RELB			RFHD			RFIN			RHEE			RKNE			RKNI			RMED			RMET			RMIF			RPSI			RSHO			RTHI			RTIB			RTOE			RTTU			RWRA			RWRB			STRN			T10			
		X1	Y1	Z1	X2	Y2	Z2	X3	Y3	Z3	X4	Y4	Z4	X5	Y5	Z5	X6	Y6	Z6	X7	Y7	Z7	X8	Y8	Z8	X9	Y9	Z9	X10	Y10	Z10	X11	Y11	Z11	X12	Y12	Z12	X13	Y13	Z13	X14	Y14	Z14	X15	Y15	Z15	X16	Y16	Z16	X17	Y17	Z17	X18	Y18	Z18	X19	Y19	Z19	X20	Y20	Z20	X21	Y21	Z21	X22	Y22	Z22	X23	Y23	Z23	X24	Y24	Z24	X25	Y25	Z25	X26	Y26	Z26	X27	Y27	Z27	X28	Y28	Z28	X29	Y29	Z29	X30	Y30	Z30	X31	Y31	Z31	X32	Y32	Z32	X33	Y33	Z33	X34	Y34	Z34	X35	Y35	Z35	X36	Y36	Z36	X37	Y37	Z37	X38	Y38	Z38	X39	Y39	Z39	X40	Y40	Z40	X41	Y41	Z41	X42	Y42	Z42	X43	Y43	Z43	X44	Y44	Z44	X45	Y45	Z45	

95	0.9400000000000001	268.7330017089844	1211.27294921875	-287.3699951171872	381.0650024414062	1142.197021484375	-281.1539916992185	249.7230072021484	59.83399963378916	-432.0969848632812	353.0459899902344	818.4420166015626	-387.6380004882811	298.4670104980469	1339.574951171875	-352.5140075683591	315.6830139160156	940.7609863281251	-542.419982910156	423.510986328125	1350.722045898438	-328.1709899902341	434.114990234375	708.5499877929689	-669.5670166015624	195.1349945068359	35.09500122070322	-405.6130065917969	279.5050048828125	440.373992919922	-426.8510131835936	252.7839965820312	417.4500122070313	-307.4030151367186	245.5670013427734	65.53199768066415	-357.8169860839844	344.8519897460938	27.63500022888193	-432.2900085449219	303.7839965820312	65.25199890136727	-384.3819885253906	233.5319976806641	877.6370239257814	-314.2569885253905	308.4159851074219	1163.473999023438	-415.9530029296872	269.81201171875	580.3850097656251	-474.1220092773436	254.8320007324219	248.3760070800782	-488.3030090332031	361.9030151367188	41.83499908447274	-389.5880126953125	314.2730102539062	359.7439880371094	-366.8489990234374	430.1080017089844	748.1040039062501	-610.9689941406249	376.3810119628906	742.7030029296876	-650.0059814453124	249.3939971923828	54.66699981689455	-111.9570007324219	374.7099914550781	803.7769775390625	-187.6430053710936	248.9010009765625	1088.838989257812	-182.5359954833982	258.3059997558594	1320.04296875	-252.0910034179685	305.5020141601562	959.968017578125	-31.43400001525858	396.3890075683594	1338.214965820312	-206.0059967041013	351.8930053710938	730.927001953125	99.888999938965	215.677001953125	26.70999908447269	-161.3520050048828	273.3500061035156	434.9849853515626	-132.9450073242187	283.3720092773438	404.9140014648438	-251.2649993896484	287.5289916992188	63.43799972534184	-177.0260009765625	336.2489929199219	29.15999984741212	-63.90299987792968	310.3949890136719	71.22000122070315	-128.6100006103515	242.1179962158203	875.0460205078125	-227.8110046386717	310.9800109863281	1198.135986328125	-152.0740051269529	296.2120056152344	572.1010131835938	-89.98500061035143	235.6950073242188	230.802001953125	-72.48799896240229	366.7850036621094	43.43600082397463	-93.0500030517578	316.9630126953125	353.9020080566407	-168.7879943847655	325.9309997558594	763.8289794921875	56.16500091552751	382.1239929199219	773.1110229492188	60.90299987792986	420.3800048828125	1010.182006835938	-273.0719909667966	258.531005859375	958.6619873046876	-270.648010253906	
96	0.9500000000000001	268.7319946289062	1211.282958984375	-287.5199890136716	381.0230102539062	1142.196044921875	-281.2590026855466	249.7019958496094	59.78900146484385	-432.0690002441406	353.010009765625	818.4349975585939	-387.6010131835936	298.3909912109375	1339.5439453125	-352.6789855957028	315.5480041503906	940.7020263671876	-542.513000488281	423.4389953613281	1350.72900390625	-328.3559875488278	433.9070129394531	708.4329833984376	-669.6199951171874	195.1360015869141	35.09899902343759	-405.6080017089844	279.5090026855469	440.373992919922	-426.8280029296874	252.7570037841797	417.4479980468751	-307.3810119628905	245.5619964599609	65.53399658203134	-357.8169860839844	344.8529968261719	27.64399909973154	-432.2850036621094	303.81201171875	65.30999755859384	-384.3970031738281	233.4510040283203	877.6530151367189	-314.2579956054686	308.375	1163.422973632812	-416.0679931640622	269.8380126953125	580.3809814453126	-474.1019897460936	254.8480072021484	248.384002685547	-488.2900085449218	361.8999938964844	41.83900070190438	-389.5899963378906	314.2650146484375	359.7349853515626	-366.8219909667968	429.9039916992188	747.9829711914064	-611.0200195312499	376.1849975585938	742.6250000000001	-650.0960083007811	249.3939971923828	54.67800140380862	-111.9509963989258	374.6210021972656	803.7949829101562	-187.5930023193358	248.4539947509766	1089.016967773438	-182.7239990234372	258.2630004882812	1320.06494140625	-252.2330017089841	305.3370056152344	960.0700073242188	-31.51099967956522	396.3380126953125	1338.255981445312	-206.1710052490232	351.7070007324219	731.1019897460938	99.94599914550797	215.6829986572266	26.71299934387211	-161.3549957275391	273.2980041503906	434.9949951171876	-132.9100036621093	283.3569946289062	404.9200134277344	-251.2469940185546	287.5350036621094	63.45399856567387	-177.0249938964844	336.260009765625	29.17200088500978	-63.9000015258789	310.3919982910156	71.22000122070315	-128.6069946289062	242.0039978027344	875.0650024414062	-227.8059997558592	310.9230041503906	1198.213012695312	-152.2140045166013	296.1189880371094	572.1270141601562	-89.9649963378905	235.6710052490234	230.802001953125	-72.4860000610351	366.7739868164062	43.42900085449221	-93.03199768066405	316.9309997558594	353.9119873046876	-168.7640075683593	325.7799987792969	763.958984375	56.18999862670915	381.9469909667969	773.2739868164062	60.96200180053728	420.3200073242188	1010.189025878906	-273.0989990234373	258.4609985351562	958.6790161132814	-270.6560058593748	
97	0.96	268.7229919433594	1211.2900390625	-287.6650085449216	380.9809875488281	1142.197998046875	-281.3640136718748	249.6739959716797	59.72900009155283	-432.0280151367188	352.9819946289062	818.4329833984376	-387.5610046386717	298.3190002441406	1339.516967773438	-352.846008300781	315.4110107421875	940.6409912109376	-542.6030273437498	423.3680114746094	1350.722045898438	-328.5400085449216	433.6839904785156	708.3140258789064	-669.6799926757811	195.1380004882812	35.10300064086923	-405.6069946289062	279.5159912109375	440.3800048828126	-426.803985595703	252.7330017089844	417.4469909667969	-307.3590087890624	245.5540008544922	65.53600311279305	-357.8240051269531	344.8569946289062	27.65900039672861	-432.281005859375	303.8410034179688	65.3730010986329	-384.4150085449219	233.3600006103516	877.6669921875001	-314.2650146484373	308.3349914550781	1163.375	-416.1860046386716	269.8550109863281	580.3850097656251	-474.0790100097655	254.8609924316406	248.3919982910157	-488.2770080566406	361.9010009765625	41.85100173950204	-389.593994140625	314.2630004882812	359.7340087890626	-366.7969970703124	429.6950073242188	747.8640136718751	-611.0709838867186	375.9739990234375	742.5410156250001	-650.1790161132811	249.3919982910156	54.69400024414065	-111.9489974975586	374.5400085449219	803.8209838867188	-187.5410003662108	247.9160003662109	1089.222045898438	-182.940002441406	258.2300109863281	1320.093994140625	-252.3829956054685	305.1690063476562	960.177001953125	-31.59199905395486	396.2929992675781	1338.288940429688	-206.335998535156	351.5260009765625	731.2769775390625	99.99299621582047	215.6920013427734	26.71500015258793	-161.3580017089844	273.2479858398438	435.0079956054688	-132.8730010986327	283.3420104980469	404.9330139160157	-251.229995727539	287.5429992675781	63.47100067138676	-177.0249938964844	336.2680053710938	29.18600082397462	-63.90100097656249	310.3999938964844	71.23000335693362	-128.615005493164	241.8730010986328	875.0800170898438	-227.7989959716795	310.8630065917969	1198.2919921875	-152.3549957275388	296.0339965820312	572.155029296875	-89.9430007934569	235.6490020751953	230.8070068359375	-72.48200225830072	366.75	43.41299819946291	-93.00199890136717	316.9070129394531	353.9320068359376	-168.7449951171874	325.6220092773438	764.0830078125	56.20899963378923	381.7699890136719	773.4400024414062	61.0169982910158	420.2669982910156	1010.203002929688	-273.127014160156	258.3919982910156	958.6970214843751	-270.6659851074216	
98	0.97	268.6889953613281	1211.2900390625	-287.804992675781	380.9320068359375	1142.202026367188	-281.4670104980466	249.6540069580078	59.68299865722665	-431.9939880371094	352.9599914550781	818.4340209960939	-387.5169982910155	298.2560119628906	1339.491943359375	-353.0169982910153	315.27099609375	940.5739746093751	-542.689025878906	423.302001953125	1350.703002929688	-328.7200012207028	433.4500122070312	708.1920166015626	-669.7459716796874	195.1380004882812	35.10300064086923	-405.6090087890625	279.5199890136719	440.3859863281251	-426.7789916992186	252.7100067138672	417.4460144042969	-307.3370056152343	245.5440063476562	65.53500366210946	-357.8340148925781	344.8599853515625	27.67499923706064	-432.2780151367188	303.8489990234375	65.3980026245118	-384.4209899902344	233.2700042724609	877.6749877929689	-314.2730102539061	308.2909851074219	1163.323974609375	-416.304992675781	269.8630065917969	580.3920288085939	-474.053009033203	254.8659973144531	248.3979949951173	-488.2630004882812	361.9049987792969	41.86500167846688	-389.5989990234375	314.260009765625	359.7380065917969	-366.7739868164062	429.4840087890625	747.7459716796876	-611.1209716796874	375.7529907226562	742.4489746093751	-650.2540283203124	249.3899993896484	54.7060012817383	-111.9509963989258	374.4599914550781	803.8480224609375	-187.4830017089842	247.4570007324219	1089.39501953125	-183.1349945068357	258.1849975585938	1320.130981445312	-252.5480041503903	305	960.2849731445312	-31.67099952697733	396.2470092773438	1338.31201171875	-206.5079956054685	351.3469848632812	731.4420166015625	100.0309982299806	215.7019958496094	26.71500015258793	-161.3609924316406	273.2000122070312	435.0180053710938	-132.8379974365234	283.322998046875	404.9500122070313	-251.2109985351562	287.5469970703125	63.48300170898442	-177.0260009765625	336.2720031738281	29.19599914550783	-63.90499877929687	310.4119873046875	71.24299621582034	-128.6280059814453	241.7429962158203	875.0859985351562	-227.7870025634764	310.7969970703125	1198.369995117188	-152.4940032958982	295.9490051269531	572.1740112304688	-89.91100311279284	235.6269989013672	230.8099975585938	-72.47100067138666	366.7120056152344	43.38600158691408	-92.96499633789061	316.8880004882812	353.9570007324219	-168.7279968261718	325.4509887695312	764.2039794921875	56.22200012207048	381.5910034179688	773.60498046875	61.06299972534197	420.2160034179688	1010.221984863281	-273.1530151367185	258.3250122070312	958.7100219726564	-270.6749877929685	
